<svg width="178" height="58" viewBox="0 0 178 58" fill="none" xmlns="http://www.w3.org/2000/svg">
<g clip-path="url(#clip0_106_7)" filter="url(#filter0_d_106_7)">
<path d="M44.776 49.862C43.7493 49.862 42.818 49.763 41.982 49.565C41.1533 49.3743 40.4933 49.07 40.002 48.652C39.5107 48.234 39.265 47.6803 39.265 46.991C39.265 46.3017 39.5107 45.7773 40.002 45.418C40.5007 45.066 41.1423 44.835 41.927 44.725V44.538L43.885 44.725C43.071 44.725 42.433 44.8203 41.971 45.011C41.509 45.209 41.1827 45.4583 40.992 45.759C40.8013 46.067 40.706 46.3823 40.706 46.705C40.706 47.2037 40.8893 47.5923 41.256 47.871C41.6227 48.1497 42.114 48.3477 42.73 48.465C43.3533 48.5823 44.05 48.641 44.82 48.641C46.3673 48.641 47.4967 48.432 48.208 48.014C48.9267 47.6033 49.286 47.0277 49.286 46.287C49.286 45.2457 48.6113 44.725 47.262 44.725H42.774C41.894 44.725 41.201 44.5673 40.695 44.252C40.1963 43.9293 39.947 43.4673 39.947 42.866C39.947 42.294 40.1743 41.8577 40.629 41.557C41.0837 41.249 41.7327 41.062 42.576 40.996V40.666L44.578 41.238H43.379C42.7483 41.238 42.268 41.326 41.938 41.502C41.608 41.6707 41.443 41.931 41.443 42.283C41.443 42.613 41.5933 42.8513 41.894 42.998C42.202 43.1373 42.664 43.207 43.28 43.207H47.218C47.9733 43.207 48.615 43.3317 49.143 43.581C49.6783 43.823 50.0817 44.1713 50.353 44.626C50.6317 45.0807 50.771 45.6233 50.771 46.254C50.771 46.9287 50.5803 47.5373 50.199 48.08C49.8177 48.63 49.187 49.0627 48.307 49.378C47.4343 49.7007 46.2573 49.862 44.776 49.862ZM44.578 41.238C43.6467 41.238 42.818 41.0693 42.092 40.732C41.366 40.3947 40.794 39.9217 40.376 39.313C39.958 38.7043 39.749 37.9893 39.749 37.168C39.749 36.3467 39.9543 35.6317 40.365 35.023C40.783 34.407 41.3513 33.9303 42.07 33.593C42.796 33.2483 43.632 33.076 44.578 33.076C45.5387 33.076 46.3857 33.2557 47.119 33.615C47.8597 33.9743 48.4243 34.473 48.813 35.111C49.0037 35.4043 49.143 35.7233 49.231 36.068C49.3263 36.4053 49.374 36.772 49.374 37.168C49.374 37.9893 49.1687 38.7043 48.758 39.313C48.3473 39.9217 47.779 40.3947 47.053 40.732C46.3343 41.0693 45.5093 41.238 44.578 41.238ZM44.578 39.94C45.2013 39.94 45.755 39.8263 46.239 39.599C46.7303 39.3717 47.1153 39.049 47.394 38.631C47.68 38.213 47.823 37.7253 47.823 37.168C47.823 36.6107 47.68 36.123 47.394 35.705C47.1153 35.2797 46.7303 34.9533 46.239 34.726C45.755 34.4913 45.2013 34.374 44.578 34.374C43.94 34.374 43.3753 34.4913 42.884 34.726C42.3927 34.9533 42.004 35.2797 41.718 35.705C41.4393 36.123 41.3 36.6107 41.3 37.168C41.3 37.7253 41.4393 38.213 41.718 38.631C42.004 39.049 42.3927 39.3717 42.884 39.599C43.3827 39.8263 43.9473 39.94 44.578 39.94ZM49.374 37.168L48.824 35.881L48.34 35.089L48.78 34.913C48.758 34.8397 48.7397 34.7663 48.725 34.693C48.7177 34.6123 48.714 34.528 48.714 34.44C48.714 34.132 48.7873 33.8533 48.934 33.604C49.0807 33.3547 49.2933 33.1567 49.572 33.01C49.8507 32.8633 50.1917 32.79 50.595 32.79C50.6977 32.79 50.7893 32.7937 50.87 32.801C50.958 32.8083 51.0423 32.823 51.123 32.845V34.374C50.9837 34.352 50.8553 34.3373 50.738 34.33C50.6207 34.3153 50.5033 34.308 50.386 34.308C50.078 34.308 49.8287 34.352 49.638 34.44C49.4547 34.528 49.3227 34.6417 49.242 34.781C49.1613 34.913 49.121 35.0597 49.121 35.221C49.121 35.375 49.143 35.5437 49.187 35.727C49.231 35.903 49.2713 36.1083 49.308 36.343C49.352 36.5777 49.374 36.8527 49.374 37.168ZM61.9238 45C61.6231 45 61.3921 44.9047 61.2308 44.714C61.0768 44.5233 60.9998 44.2557 60.9998 43.911V40.391L61.1428 40.028L61.0658 38.697L60.9998 38.004V37.113C60.9998 36.5117 60.8751 36.0203 60.6258 35.639C60.3838 35.2577 60.0318 34.9753 59.5698 34.792C59.1078 34.6087 58.5505 34.517 57.8978 34.517C56.9225 34.517 56.1671 34.7113 55.6318 35.1C55.1038 35.4813 54.7518 36.057 54.5758 36.827L53.0578 36.508C53.2045 35.738 53.4795 35.1 53.8828 34.594C54.2861 34.0807 54.8215 33.6993 55.4888 33.45C56.1635 33.1933 56.9848 33.065 57.9528 33.065C58.9648 33.065 59.8118 33.208 60.4938 33.494C61.1831 33.7727 61.7038 34.2017 62.0558 34.781C62.4078 35.3603 62.5838 36.1083 62.5838 37.025V43.636H64.3108V45H61.9238ZM56.4018 45.154C55.1845 45.154 54.2605 44.8863 53.6298 44.351C52.9991 43.8083 52.6838 43.0127 52.6838 41.964C52.6838 40.996 52.9625 40.259 53.5198 39.753C54.0771 39.2397 54.9718 38.8547 56.2038 38.598L61.4728 37.476V38.609L56.4678 39.742C55.7491 39.9107 55.2101 40.16 54.8508 40.49C54.4988 40.8127 54.3228 41.271 54.3228 41.865C54.3228 42.5103 54.5208 42.9943 54.9168 43.317C55.3128 43.6323 55.8921 43.79 56.6548 43.79C57.4981 43.79 58.2535 43.5957 58.9208 43.207C59.5881 42.8183 60.1125 42.2463 60.4938 41.491C60.8751 40.7357 61.0658 39.8043 61.0658 38.697L61.4838 41.293H60.9228C60.7395 42.5177 60.2628 43.4673 59.4928 44.142C58.7301 44.8167 57.6998 45.154 56.4018 45.154ZM70.1088 43.636H72.1988V45H66.1158V43.636H68.5248V34.649H66.1158V33.285H70.1088V43.636ZM76.8628 43.636V37.509C76.8628 36.5483 76.6465 35.793 76.2138 35.243C75.7812 34.693 75.0992 34.418 74.1678 34.418C73.4125 34.418 72.7268 34.605 72.1108 34.979C71.4948 35.353 71.0072 35.8957 70.6478 36.607C70.2885 37.3183 70.1088 38.18 70.1088 39.192L69.7458 36.849H70.1858C70.3252 36.0497 70.5928 35.3713 70.9888 34.814C71.3848 34.2493 71.8908 33.8203 72.5068 33.527C73.1302 33.2263 73.8452 33.076 74.6518 33.076C75.9278 33.076 76.8775 33.4463 77.5008 34.187C78.1315 34.9203 78.4468 35.958 78.4468 37.3V43.636H80.7018V45H74.8058V43.636H76.8628ZM92.0887 41.898C92.0887 42.514 92.2061 42.9797 92.4407 43.295C92.6754 43.603 93.0347 43.757 93.5187 43.757C93.9954 43.757 94.3547 43.5993 94.5967 43.284C94.8387 42.9613 94.9597 42.4993 94.9597 41.898V40.809H96.3897V41.887C96.3897 42.591 96.2834 43.1923 96.0707 43.691C95.8654 44.1823 95.5501 44.56 95.1247 44.824C94.6994 45.0807 94.1531 45.209 93.4857 45.209C92.8037 45.209 92.2427 45.077 91.8027 44.813C91.3627 44.5417 91.0364 44.1603 90.8237 43.669C90.6111 43.1777 90.5047 42.5873 90.5047 41.898L90.5157 34.649H88.4257V33.285H90.5157V30.315H92.0997V33.285H96.2357L96.2247 34.649H92.0997L92.0887 41.898ZM102.378 43.636H104.666V45H98.3854V43.636H100.794V34.649H98.3854V33.285H102.378V43.636ZM106.877 34.968C106.745 34.9313 106.602 34.902 106.448 34.88C106.302 34.858 106.14 34.847 105.964 34.847C104.879 34.847 104.01 35.254 103.357 36.068C102.705 36.8747 102.378 37.9967 102.378 39.434L102.004 36.871H102.455C102.558 36.0937 102.771 35.4263 103.093 34.869C103.416 34.3043 103.834 33.8717 104.347 33.571C104.868 33.263 105.477 33.109 106.173 33.109C106.305 33.109 106.423 33.1163 106.525 33.131C106.635 33.1383 106.753 33.153 106.877 33.175V34.968ZM117.697 45C117.397 45 117.166 44.9047 117.004 44.714C116.85 44.5233 116.773 44.2557 116.773 43.911V40.391L116.916 40.028L116.839 38.697L116.773 38.004V37.113C116.773 36.5117 116.649 36.0203 116.399 35.639C116.157 35.2577 115.805 34.9753 115.343 34.792C114.881 34.6087 114.324 34.517 113.671 34.517C112.696 34.517 111.941 34.7113 111.405 35.1C110.877 35.4813 110.525 36.057 110.349 36.827L108.831 36.508C108.978 35.738 109.253 35.1 109.656 34.594C110.06 34.0807 110.595 33.6993 111.262 33.45C111.937 33.1933 112.758 33.065 113.726 33.065C114.738 33.065 115.585 33.208 116.267 33.494C116.957 33.7727 117.477 34.2017 117.829 34.781C118.181 35.3603 118.357 36.1083 118.357 37.025V43.636H120.084V45H117.697ZM112.175 45.154C110.958 45.154 110.034 44.8863 109.403 44.351C108.773 43.8083 108.457 43.0127 108.457 41.964C108.457 40.996 108.736 40.259 109.293 39.753C109.851 39.2397 110.745 38.8547 111.977 38.598L117.246 37.476V38.609L112.241 39.742C111.523 39.9107 110.984 40.16 110.624 40.49C110.272 40.8127 110.096 41.271 110.096 41.865C110.096 42.5103 110.294 42.9943 110.69 43.317C111.086 43.6323 111.666 43.79 112.428 43.79C113.272 43.79 114.027 43.5957 114.694 43.207C115.362 42.8183 115.886 42.2463 116.267 41.491C116.649 40.7357 116.839 39.8043 116.839 38.697L117.257 41.293H116.696C116.513 42.5177 116.036 43.4673 115.266 44.142C114.504 44.8167 113.473 45.154 112.175 45.154ZM128.018 45.209C126.8 45.209 125.741 44.9523 124.839 44.439C123.944 43.9257 123.247 43.218 122.749 42.316C122.257 41.4067 122.012 40.3617 122.012 39.181C122.012 38.2863 122.147 37.4687 122.419 36.728C122.69 35.98 123.079 35.3347 123.585 34.792C124.091 34.242 124.692 33.8203 125.389 33.527C126.085 33.2263 126.863 33.076 127.721 33.076C128.549 33.076 129.239 33.2117 129.789 33.483C130.346 33.747 130.779 34.1137 131.087 34.583C131.395 35.045 131.593 35.5767 131.681 36.178H132.066L131.747 37.839C131.651 37.179 131.435 36.5997 131.098 36.101C130.76 35.595 130.32 35.2027 129.778 34.924C129.235 34.638 128.608 34.495 127.897 34.495C127.046 34.495 126.298 34.6967 125.653 35.1C125.015 35.496 124.516 36.046 124.157 36.75C123.805 37.4467 123.629 38.257 123.629 39.181C123.629 40.0757 123.808 40.8677 124.168 41.557C124.534 42.239 125.044 42.7743 125.697 43.163C126.357 43.5517 127.134 43.746 128.029 43.746C128.953 43.746 129.748 43.5443 130.416 43.141C131.083 42.7303 131.571 42.1803 131.879 41.491L133.342 42.14C132.924 43.086 132.253 43.834 131.329 44.384C130.412 44.934 129.308 45.209 128.018 45.209ZM131.747 37.839V33.285H133.331V37.839H131.747ZM139.238 43.636H141.317V45H135.3V43.636H137.654V28.984H135.3V27.62H139.238V43.636ZM143.33 37.575L147.983 43.636H149.512V45H143.484V43.636H146.025L142.208 38.532L143.33 37.575ZM138.765 41.843L138.435 40.578L145.618 34.649H142.043V33.285H149.325V34.649H147.675L138.765 41.843ZM156.934 45.209C155.724 45.209 154.675 44.9523 153.788 44.439C152.9 43.9257 152.215 43.218 151.731 42.316C151.247 41.4067 151.005 40.3617 151.005 39.181C151.005 37.9857 151.247 36.9297 151.731 36.013C152.222 35.0963 152.904 34.3777 153.777 33.857C154.657 33.3363 155.68 33.076 156.846 33.076C158.019 33.076 159.035 33.3327 159.893 33.846C160.751 34.3593 161.411 35.0707 161.873 35.98C162.335 36.8893 162.566 37.938 162.566 39.126C162.566 39.2653 162.562 39.3753 162.555 39.456C162.555 39.5367 162.547 39.6063 162.533 39.665H160.971C160.978 39.577 160.982 39.4817 160.982 39.379C160.989 39.269 160.993 39.1443 160.993 39.005C160.993 38.1323 160.824 37.3587 160.487 36.684C160.157 36.002 159.684 35.4667 159.068 35.078C158.452 34.6893 157.711 34.495 156.846 34.495C156.002 34.495 155.262 34.6967 154.624 35.1C153.986 35.496 153.491 36.046 153.139 36.75C152.787 37.4467 152.611 38.257 152.611 39.181C152.611 40.0757 152.783 40.8677 153.128 41.557C153.48 42.239 153.978 42.7743 154.624 43.163C155.269 43.5517 156.035 43.746 156.923 43.746C157.847 43.746 158.646 43.5297 159.321 43.097C160.003 42.657 160.509 42.0593 160.839 41.304L162.335 41.865C161.902 42.899 161.209 43.7167 160.256 44.318C159.31 44.912 158.202 45.209 156.934 45.209ZM152.006 39.665V38.444H162.06L162.522 39.665H152.006ZM168.744 43.636H171.032V45H164.751V43.636H167.16V34.649H164.751V33.285H168.744V43.636ZM173.243 34.968C173.111 34.9313 172.968 34.902 172.814 34.88C172.667 34.858 172.506 34.847 172.33 34.847C171.244 34.847 170.375 35.254 169.723 36.068C169.07 36.8747 168.744 37.9967 168.744 39.434L168.37 36.871H168.821C168.923 36.0937 169.136 35.4263 169.459 34.869C169.781 34.3043 170.199 33.8717 170.713 33.571C171.233 33.263 171.842 33.109 172.539 33.109C172.671 33.109 172.788 33.1163 172.891 33.131C173.001 33.1383 173.118 33.153 173.243 33.175V34.968Z" fill="white"/>
<g filter="url(#filter1_i_106_7)">
<path d="M45.5768 3.99L28.8968 45H23.8568L7.17682 3.99H2.76682V-0.120002H22.5668V3.99H11.8868L27.1268 41.46L24.1268 39.81H28.5068L25.9568 41.46L41.1968 3.99H30.5168V-0.120002H49.9868V3.99H45.5768Z" fill="#00FF88"/>
</g>
<g filter="url(#filter2_d_106_7)">
<path d="M42.2817 25.05C42.0484 25.05 41.8317 25.0167 41.6317 24.95C40.9984 24.8167 40.5484 24.4333 40.2817 23.8C40.0817 23.2333 40.1317 22.6 40.4317 21.9C40.7651 21.2 41.1984 20.4167 41.7317 19.55C41.9317 19.25 42.1151 18.95 42.2817 18.65C42.4817 18.3167 42.6484 18.0167 42.7817 17.75C42.8484 17.65 42.8984 17.5667 42.9317 17.5C42.9651 17.4 42.9984 17.3167 43.0317 17.25C42.0317 17.0833 40.8651 17.05 39.5317 17.15C38.2317 17.2167 36.7651 17.4667 35.1317 17.9C33.6984 18.2667 32.1484 18.75 30.4817 19.35C28.8484 19.9167 27.1151 20.6 25.2817 21.4C24.9151 21.5333 24.5484 21.5333 24.1817 21.4C23.8151 21.2667 23.5484 21.0167 23.3817 20.65C23.1817 20.2833 23.1651 19.9 23.3317 19.5C23.4984 19.0667 23.7651 18.7833 24.1317 18.65C25.9984 17.8167 27.7817 17.1 29.4817 16.5C31.2151 15.8667 32.8484 15.3667 34.3817 15C38.4817 13.9667 41.8317 13.8 44.4317 14.5C45.1984 14.7 45.7317 15.1667 46.0317 15.9C46.3317 16.6333 46.2651 17.45 45.8317 18.35C45.3984 19.25 44.8817 20.1833 44.2817 21.15C44.2484 21.2167 44.1984 21.3 44.1317 21.4C44.0651 21.5 43.9984 21.6167 43.9317 21.75C44.6984 21.5833 45.8317 21.25 47.3317 20.75C48.8317 20.25 50.8984 19.5167 53.5317 18.55C53.8984 18.4167 54.2651 18.45 54.6317 18.65C55.0317 18.8167 55.2984 19.1 55.4317 19.5C55.5984 19.8667 55.5984 20.25 55.4317 20.65C55.2651 21.0167 54.9651 21.2833 54.5317 21.45C52.9984 21.9833 51.5984 22.4667 50.3317 22.9C49.0651 23.3333 47.9317 23.7 46.9317 24C45.5984 24.4 44.5817 24.6833 43.8817 24.85C43.1817 24.9833 42.6484 25.05 42.2817 25.05Z" fill="white"/>
</g>
</g>
<defs>
<filter id="filter0_d_106_7" x="0" y="0" width="178" height="58" filterUnits="userSpaceOnUse" color-interpolation-filters="sRGB">
<feFlood flood-opacity="0" result="BackgroundImageFix"/>
<feColorMatrix in="SourceAlpha" type="matrix" values="0 0 0 0 0 0 0 0 0 0 0 0 0 0 0 0 0 0 127 0" result="hardAlpha"/>
<feOffset dy="4"/>
<feGaussianBlur stdDeviation="2"/>
<feComposite in2="hardAlpha" operator="out"/>
<feColorMatrix type="matrix" values="0 0 0 0 0 0 0 0 0 0 0 0 0 0 0 0 0 0 0.25 0"/>
<feBlend mode="normal" in2="BackgroundImageFix" result="effect1_dropShadow_106_7"/>
<feBlend mode="normal" in="SourceGraphic" in2="effect1_dropShadow_106_7" result="shape"/>
</filter>
<filter id="filter1_i_106_7" x="2.76682" y="-0.119995" width="47.22" height="49.12" filterUnits="userSpaceOnUse" color-interpolation-filters="sRGB">
<feFlood flood-opacity="0" result="BackgroundImageFix"/>
<feBlend mode="normal" in="SourceGraphic" in2="BackgroundImageFix" result="shape"/>
<feColorMatrix in="SourceAlpha" type="matrix" values="0 0 0 0 0 0 0 0 0 0 0 0 0 0 0 0 0 0 127 0" result="hardAlpha"/>
<feOffset dy="4"/>
<feGaussianBlur stdDeviation="2"/>
<feComposite in2="hardAlpha" operator="arithmetic" k2="-1" k3="1"/>
<feColorMatrix type="matrix" values="0 0 0 0 0 0 0 0 0 0 0 0 0 0 0 0 0 0 0.25 0"/>
<feBlend mode="normal" in2="shape" result="effect1_innerShadow_106_7"/>
</filter>
<filter id="filter2_d_106_7" x="19.0817" y="13.45" width="40.6" height="19.6" filterUnits="userSpaceOnUse" color-interpolation-filters="sRGB">
<feFlood flood-opacity="0" result="BackgroundImageFix"/>
<feColorMatrix in="SourceAlpha" type="matrix" values="0 0 0 0 0 0 0 0 0 0 0 0 0 0 0 0 0 0 127 0" result="hardAlpha"/>
<feOffset dy="4"/>
<feGaussianBlur stdDeviation="2"/>
<feComposite in2="hardAlpha" operator="out"/>
<feColorMatrix type="matrix" values="0 0 0 0 0 0 0 0 0 0 0 0 0 0 0 0 0 0 0.25 0"/>
<feBlend mode="normal" in2="BackgroundImageFix" result="effect1_dropShadow_106_7"/>
<feBlend mode="normal" in="SourceGraphic" in2="effect1_dropShadow_106_7" result="shape"/>
</filter>
<clipPath id="clip0_106_7">
<rect width="170" height="50" fill="white" transform="translate(4)"/>
</clipPath>
</defs>
</svg>
